HIERARCHY
ROOT Hips
{
	OFFSET 0.00000 0.00000 0.00000
	CHANNELS 6 Xposition Yposition Zposition Zrotation Yrotation Xrotation 
	JOINT LHipJoint
	{
		OFFSET 0 0 0
		CHANNELS 3 Zrotation Yrotation Xrotation
		JOINT LeftHip
		{
			OFFSET 1.86795 -1.59681 0.65681
			CHANNELS 3 Zrotation Yrotation Xrotation
			JOINT LeftKnee
			{
				OFFSET 2.30491 -6.33268 0.00000
				CHANNELS 3 Zrotation Yrotation Xrotation
				JOINT LeftAnkle
				{
					OFFSET 2.46780 -6.78022 0.00000
					CHANNELS 3 Zrotation Yrotation Xrotation
					JOINT LeftToe
					{
						OFFSET 0.07897 -0.21698 1.59652
						CHANNELS 3 Zrotation Yrotation Xrotation
						End Site
						{
							OFFSET 0.00000 -0.00000 0.82310
						}
					}
				}
			}
		}
	}
	JOINT RHipJoint
	{
		OFFSET 0 0 0
		CHANNELS 3 Zrotation Yrotation Xrotation
		JOINT RightHip
		{
			OFFSET -1.93650 -1.59681 0.65681
			CHANNELS 3 Zrotation Yrotation Xrotation
			JOINT RightKnee
			{
				OFFSET -2.29410 -6.30299 0.00000
				CHANNELS 3 Zrotation Yrotation Xrotation
				JOINT RightAnkle
				{
					OFFSET -2.48738 -6.83403 0.00000
					CHANNELS 3 Zrotation Yrotation Xrotation
					JOINT RightToe
					{
						OFFSET -0.08699 -0.23899 1.89395
						CHANNELS 3 Zrotation Yrotation Xrotation
						End Site
						{
							OFFSET -0.00000 -0.00000 0.96904
						}
					}
				}
			}
		}
	}
	JOINT lowerback
	{
		OFFSET 0 0 0
		CHANNELS 3 Zrotation Yrotation Xrotation
		JOINT Chest
		{
			OFFSET 0.03629 1.99740 -0.07548
			CHANNELS 3 Zrotation Yrotation Xrotation
			JOINT Chest2
			{
				OFFSET 0.03970 1.94298 0.17218
				CHANNELS 3 Zrotation Yrotation Xrotation
				JOINT lowerneck
				{
					OFFSET 0 0 0
					CHANNELS 3 Zrotation Yrotation Xrotation
					JOINT Neck
					{
						OFFSET -0.05054 1.79469 0.04241
						CHANNELS 3 Zrotation Yrotation Xrotation
						JOINT Head
						{
							OFFSET 0.05195 1.78475 -0.22133
							CHANNELS 3 Zrotation Yrotation Xrotation
							End Site
							{
								OFFSET 0.02420 1.80711 -0.07950
							}
						}
					}
				}
				JOINT LeftCollar
				{
					OFFSET 0 0 0
					CHANNELS 3 Zrotation Yrotation Xrotation
					JOINT LeftShoulder
					{
						OFFSET 2.92134 1.19850 0.36056
CHANNELS 3 Zrotation Xrotation Yrotation
						JOINT LeftElbow
						{
OFFSET 0 -4.841370 0.000000
CHANNELS 3 Zrotation Xrotation Yrotation
							JOINT LeftWrist
							{
OFFSET 0 -3.245200 -0.000000
CHANNELS 3 Zrotation Xrotation Yrotation
								JOINT lhand
								{
									OFFSET 0 0 0
CHANNELS 3 Zrotation Xrotation Yrotation
									JOINT LFingers
									{
OFFSET 0 -0.521220 0.000000
CHANNELS 3 Zrotation Xrotation Yrotation
										End Site
										{
OFFSET 0 -0.420220 0.000000
										}
									}
								}
								JOINT LThumb
								{
OFFSET 0 0.000000 0.000000
CHANNELS 3 Zrotation Xrotation Yrotation
									End Site
									{
OFFSET 0 -0.426640 0.426640
									}
								}
							}
						}
					}
				}
				JOINT RightCollar
				{
					OFFSET 0 0 0
					CHANNELS 3 Zrotation Yrotation Xrotation
					JOINT RightShoulder
					{
						OFFSET -2.84327 1.20795 0.50191
CHANNELS 3 Zrotation Xrotation Yrotation
						JOINT RightElbow
						{
OFFSET 0 -4.722840 0.000000
CHANNELS 3 Zrotation Xrotation Yrotation
							JOINT RightWrist
							{
OFFSET 0 -3.234590 0.000000
CHANNELS 3 Zrotation Xrotation Yrotation
								JOINT rhand
								{
									OFFSET 0 0 0
CHANNELS 3 Zrotation Xrotation Yrotation
									JOINT RFingers
									{
OFFSET 0 -0.307420 0.000000
CHANNELS 3 Zrotation Xrotation Yrotation
										End Site
										{
OFFSET 0 -0.247850 0.000000
										}
									}
								}
								JOINT RThumb
								{
OFFSET 0 0.000000 0.000000
CHANNELS 3 Zrotation Xrotation Yrotation
									End Site
									{
OFFSET 0 -0.251630 0.251630
									}
								}
							}
						}
					}
				}
			}
		}
	}
}
MOTION
Frames: 9
Frame Time: 0.008333333333333333
26.945100 16.103900 -30.291800 1.747500 -33.085400 14.627100 0.000000 0.000000 0.000000 -15.204900 -52.076400 -4.024400 1.256700 7.106600 20.031600 8.285500 21.331600 -62.364300 7.041300 15.366600 49.030500 0.000000 0.000000 0.000000 12.874400 40.073300 -16.808900 -2.288100 -9.442000 27.188100 -7.913800 -19.926400 -60.695300 -7.844900 -16.004000 52.002100 -0.881500 -0.382100 4.263100 -0.837900 -0.602800 -2.005000 -0.322300 -0.287800 -4.461700 -5.831300 -1.381000 0.045600 5.962600 -1.665200 -6.426300 2.988700 -0.838100 -1.959400 0.000000 -0.000000 0.000000 7.788400 5.124700 -36.957900 27.045000 -38.222100 9.527000 -0.621700 22.778100 -41.143700 0.000000 0.000000 0.000000 -7.125000 0.000000 0.000000 -47.265400 65.000900 25.391300 0.000000 -0.000000 0.000000 -7.879400 -0.175800 48.615100 -16.322900 -25.956500 -3.786200 -23.333500 -17.624600 -19.803600 0.000000 0.000000 0.000000 7.125000 0.000000 -0.000000 3.234400 8.594200 2.719200
26.942112 16.111815 -30.284658 1.919415 -33.272571 14.659133 0.000000 0.000000 0.000000 -15.359907 -52.061259 -3.925452 1.237975 7.055249 19.879154 8.678742 19.784490 -62.788470 7.419223 15.674675 50.442018 0.000000 0.000000 0.000000 12.597957 39.989773 -17.096026 -2.302393 -9.469264 27.274693 -7.179936 -22.259995 -59.723322 -7.343718 -15.614577 50.162588 -1.088997 -0.254262 4.161369 -0.951397 -0.442113 -1.673781 -0.336659 -0.205451 -4.059687 -5.816972 -1.513132 -0.845653 6.022976 -1.812612 -5.869298 2.983414 -0.902082 -1.607500 0.000000 0.000000 0.000000 8.045620 4.413917 -36.925541 26.819838 -38.006766 9.388066 -2.289546 21.656450 -42.065374 0.000000 0.000000 0.000000 -7.125000 0.000000 0.000000 -50.270908 65.132952 27.525568 0.000000 0.000000 0.000000 -7.748573 -0.647787 48.019721 -16.261028 -25.873343 -3.759175 -23.319165 -17.528073 -20.008004 0.000000 0.000000 0.000000 7.125000 0.000000 0.000000 3.262165 8.379285 2.756677
26.939919 16.078860 -30.280168 1.829444 -33.386272 14.951065 0.000000 0.000000 0.000000 -15.054820 -52.402514 -4.276592 1.269784 7.142195 20.137327 8.898213 19.561653 -63.302470 7.425220 15.679519 50.464516 0.000000 0.000000 0.000000 12.230749 40.833807 -17.386670 -2.263919 -9.395421 27.040373 -7.676471 -21.033864 -60.532352 -7.620313 -15.831745 51.181545 -1.098847 -0.345285 4.052628 -0.892177 -0.559628 -1.655046 -0.261894 -0.263159 -3.977653 -6.124611 -1.392914 -0.965131 5.978943 -1.658401 -5.516777 3.018346 -0.815862 -1.481190 0.000000 0.000000 0.000000 8.066510 4.290891 -36.409621 26.367423 -37.569204 9.110770 -1.634904 22.010870 -42.039964 0.000000 0.000000 0.000000 -7.125000 0.000000 0.000000 -49.634514 65.306913 27.287239 0.000000 0.000000 0.000000 -8.026650 -0.669648 48.587892 -16.377870 -26.030310 -3.810320 -22.808344 -17.622179 -19.599994 0.000000 0.000000 0.000000 7.125000 0.000000 0.000000 3.554659 8.891705 2.968394
26.940249 16.110751 -30.285390 1.899452 -33.401587 14.974432 0.000000 0.000000 0.000000 -14.936600 -52.236605 -4.554629 1.261036 7.118525 20.066879 8.543605 20.959829 -62.907911 7.131983 15.442065 49.371785 0.000000 0.000000 0.000000 12.306681 40.085216 -17.508399 -2.279477 -9.425440 27.135352 -7.493684 -20.897427 -59.944333 -7.622906 -15.834712 51.192679 -1.264277 -0.414681 4.239431 -0.870824 -0.664356 -1.644608 -0.137920 -0.310167 -4.070320 -6.336940 -1.158115 -0.689276 6.063401 -1.361894 -5.252417 3.086359 -0.668016 -1.464064 0.000000 0.000000 0.000000 8.141207 4.667222 -36.025264 26.204865 -37.410200 9.011849 -1.890418 22.071610 -42.043645 0.000000 0.000000 0.000000 -7.125000 0.000000 0.000000 -49.872690 65.234747 27.369146 0.000000 0.000000 0.000000 -8.172403 -0.501624 48.832749 -16.620474 -26.354784 -3.917338 -23.314498 -17.728364 -19.110726 0.000000 0.000000 0.000000 7.125000 0.000000 0.000000 3.185176 9.334025 2.630566
26.944465 16.072579 -30.291059 1.911797 -33.434489 14.901066 0.000000 0.000000 0.000000 -14.945568 -51.982240 -4.877308 1.331079 7.305790 20.624420 8.735670 19.452599 -62.807957 7.364254 15.630991 50.238633 0.000000 0.000000 0.000000 12.114685 40.461258 -17.481948 -2.195440 -9.261858 26.617866 -7.185585 -22.269337 -59.744132 -7.491441 -15.732000 50.709151 -1.402984 -0.492581 4.563287 -0.793919 -0.775036 -1.354043 0.029521 -0.361845 -3.948737 -6.171346 -1.092077 -1.240831 5.503120 -1.273001 -4.931082 2.852014 -0.611915 -1.269980 0.000000 0.000000 0.000000 8.158181 4.009785 -35.364354 25.519934 -36.730547 8.598978 -2.508051 22.085708 -42.079121 0.000000 0.000000 0.000000 -7.125000 0.000000 0.000000 -50.491120 65.078570 27.613975 0.000000 0.000000 0.000000 -8.410217 -0.855597 49.070258 -16.874865 -26.692477 -4.030984 -23.510868 -17.947621 -19.416463 0.000000 0.000000 0.000000 7.125000 0.000000 0.000000 3.085182 8.978318 2.569665
26.948569 16.106310 -30.294913 1.509262 -33.372945 15.128247 0.000000 0.000000 0.000000 -14.505105 -51.905213 -4.797160 1.287680 7.190377 20.280576 8.598296 20.057955 -62.678033 7.256825 15.543926 49.838231 0.000000 0.000000 0.000000 12.729489 38.851563 -17.864974 -2.247808 -9.364196 26.941470 -7.265317 -19.925263 -58.809537 -7.755258 -15.936195 51.676218 -0.983928 -0.361218 4.992665 -0.785497 -0.578879 -1.256666 -0.209690 -0.273805 -4.096235 -5.997824 -1.172053 -1.183800 5.433861 -1.385550 -4.923576 2.796676 -0.671044 -1.270973 0.000000 0.000000 0.000000 8.440122 3.803631 -35.537187 25.066107 -36.271396 8.329040 -2.908040 21.869089 -43.006195 0.000000 0.000000 0.000000 -7.125000 0.000000 0.000000 -52.396305 65.548533 29.462017 0.000000 0.000000 0.000000 -8.430641 -0.676905 48.628017 -17.263566 -27.203789 -4.207196 -23.634569 -18.251430 -20.092021 0.000000 0.000000 0.000000 7.125000 0.000000 0.000000 3.068381 8.239131 2.600153
26.956937 16.107184 -30.300358 1.574390 -33.447723 15.076044 0.000000 0.000000 0.000000 -14.623612 -52.072692 -4.721122 1.277147 7.162101 20.196455 8.402211 21.383088 -62.705594 7.072171 15.392398 49.146777 0.000000 0.000000 0.000000 12.658117 37.839185 -18.381240 -2.267604 -9.402617 27.062961 -6.343411 -22.179620 -57.247163 -7.310020 -15.587290 50.036820 -0.962774 -0.316309 5.312844 -0.883812 -0.523644 -1.027312 -0.326283 -0.248603 -4.040696 -5.937705 -1.069526 -1.896533 5.372038 -1.238769 -3.819953 2.745330 -0.590918 -0.803060 0.000000 0.000000 0.000000 8.697161 3.597708 -35.357054 24.639640 -35.833238 8.078063 -1.948918 22.607921 -42.851066 0.000000 0.000000 0.000000 -7.125000 0.000000 0.000000 -51.273643 65.737254 28.885368 0.000000 0.000000 0.000000 -8.607292 -0.787764 48.762456 -17.724953 -27.803509 -4.420290 -24.168433 -19.301261 -21.245084 0.000000 0.000000 0.000000 7.125000 0.000000 0.000000 2.841876 6.923037 2.481651
26.972359 16.099169 -30.323402 1.272943 -33.487198 15.366924 0.000000 0.000000 0.000000 -13.784976 -51.214842 -5.904948 1.324940 7.289606 20.576313 7.818679 21.937247 -61.355868 7.008750 15.339228 48.907443 0.000000 0.000000 0.000000 12.763336 37.034487 -18.861033 -2.216568 -9.303239 26.748704 -6.332431 -20.473304 -56.277561 -7.570032 -15.793673 50.998766 -0.663444 -0.345697 5.710604 -0.815508 -0.542319 -0.831753 -0.420183 -0.263993 -4.064492 -6.037230 -0.782573 -2.771437 5.199374 -0.842888 -2.392360 2.693763 -0.382869 -0.223436 0.000000 0.000000 0.000000 8.810547 3.464516 -34.653013 24.404864 -35.589452 7.940984 -2.763612 22.125480 -42.478678 0.000000 0.000000 0.000000 -7.125000 0.000000 0.000000 -51.378016 65.261195 28.422788 0.000000 0.000000 0.000000 -9.131819 -0.929268 49.618959 -18.362505 -28.618814 -4.721609 -24.304104 -20.118822 -21.315955 0.000000 0.000000 0.000000 7.125000 0.000000 0.000000 2.763258 6.824109 2.418299
26.983550 16.107719 -30.348878 1.469405 -33.620536 15.460841 0.000000 0.000000 0.000000 -13.437818 -50.072006 -6.891794 1.311645 7.254473 20.471512 7.262614 22.229315 -59.941114 6.818818 15.177281 48.185507 0.000000 0.000000 0.000000 12.442211 35.692531 -19.849496 -2.233478 -9.336300 26.853130 -5.045345 -22.638922 -53.511239 -7.081925 -15.400510 49.183563 -0.780740 -0.174305 6.258384 -0.952233 -0.333414 -0.588393 -0.513181 -0.159602 -4.120687 -5.505135 -0.610483 -3.915373 4.528181 -0.603935 -0.978948 2.371118 -0.259154 0.399408 0.000000 0.000000 0.000000 9.186291 2.867991 -34.990949 23.930007 -35.090119 7.666352 -2.846278 21.469912 -43.070031 0.000000 0.000000 0.000000 -7.125000 0.000000 0.000000 -52.447209 65.609721 29.559756 0.000000 0.000000 0.000000 -9.229333 -1.405411 49.412452 -18.773895 -29.136663 -4.920330 -24.954444 -20.350733 -20.272733 0.000000 0.000000 0.000000 7.125000 0.000000 0.000000 2.240894 7.827587 1.916387
